<!-- Generated by IcoMoon.io -->
<svg version="1.1" xmlns="http://www.w3.org/2000/svg" width="1792" height="1024" viewBox="0 0 1792 1024">
<title></title>
<g id="icomoon-ignore">
</g>
<path d="M979.305 676.273c-21.266 21.437-50.737 34.707-83.307 34.707s-62.040-13.27-83.299-34.699l-0.008-0.008-537.388-538.56c-21.266-21.437-50.737-34.707-83.307-34.707s-62.040 13.27-83.299 34.699l-0.008 0.008c-21.086 21.208-34.12 50.442-34.12 82.72s13.034 61.512 34.125 82.725l538.556 538.555c63.684 63.608 151.621 102.945 248.747 102.945s185.063-39.337 248.75-102.949l538.554-538.557c20.918-21.085 33.89-50.080 34.035-82.106v-0.028c0.001-0.194 0.002-0.423 0.002-0.653 0-16.006-3.204-31.264-9.006-45.167l0.287 0.776c-6.167-14.88-14.725-27.589-25.325-38.269l0.007 0.007c-21.264-21.437-50.732-34.707-83.299-34.707-0.001 0-0.002 0-0.003 0v0c0 0-0.001 0-0.002 0-32.568 0-62.036 13.271-83.293 34.699l-0.008 0.008-537.393 538.56z"></path>
</svg>
